<svg xmlns="http://www.w3.org/2000/svg" xmlns:xlink="http://www.w3.org/1999/xlink" viewBox="0 0 259.65 130.26"><defs><style>.cls-1{clip-path:url(#clip-path);}</style><clipPath id="clip-path" transform="translate(37.91 27.13)"><path d="M0,39V75.35c0,.45,0,.65.18.65h0a1.28,1.28,0,0,0,.51-.22c2.66-1.53,5.32-3,8-4.59L31.78,57.84c.28-.17.76-.26.76-.56s-.48-.43-.78-.6Q19.46,49.56,7.12,42.45L.58,38.67a.9.9,0,0,0-.39-.17c-.14,0-.18.15-.19.49M0,.6c0,1.69,0,3.35,0,5,0,4.85,0,9.68,0,14.53A11.5,11.5,0,0,0,6.18,30.62C18,37.51,29.94,44.36,41.81,51.23a1.26,1.26,0,0,0,1.48,0c1.59-1,3.22-1.85,4.83-2.77A11.85,11.85,0,0,0,54.38,38c0-.22,0-.43,0-.65s-.06-.47-.1-.7a11.46,11.46,0,0,0-5.65-8.78c-2.87-1.7-5.79-3.35-8.67-5Q20.38,11.55.73.21A1.14,1.14,0,0,0,.23,0C.07,0,0,.18,0,.6"/></clipPath></defs><g id="Layer_2" data-name="Layer 2"><g id="Layer_1-2" data-name="Layer 1"><path d="M0,39V75.35c0,.45,0,.65.18.65h0a1.28,1.28,0,0,0,.51-.22c2.66-1.53,5.32-3,8-4.59L31.78,57.84c.28-.17.76-.26.76-.56s-.48-.43-.78-.6Q19.46,49.56,7.12,42.45L.58,38.67a.9.9,0,0,0-.39-.17c-.14,0-.18.15-.19.49M0,.6c0,1.69,0,3.35,0,5,0,4.85,0,9.68,0,14.53A11.5,11.5,0,0,0,6.18,30.62C18,37.51,29.94,44.36,41.81,51.23a1.26,1.26,0,0,0,1.48,0c1.59-1,3.22-1.85,4.83-2.77A11.85,11.85,0,0,0,54.38,38c0-.22,0-.43,0-.65s-.06-.47-.1-.7a11.46,11.46,0,0,0-5.65-8.78c-2.87-1.7-5.79-3.35-8.67-5Q20.38,11.55.73.21A1.14,1.14,0,0,0,.23,0C.07,0,0,.18,0,.6" transform="translate(37.91 27.13)"/><g class="cls-1"><rect x="-19.14" y="-7.81" width="92.68" height="91.62" transform="translate(18.77 59.11) rotate(-47)"/></g><path d="M77.2,19.07V35.86c2.14-4.28,6.42-6.2,11-6.2,7.38,0,13.27,4.92,13.27,13.63S95.6,56.93,88.22,56.93a12.43,12.43,0,0,1-11-6.25V56.5H74.63V19.07Zm0,24.17c0,6.58,4.6,11.13,10.81,11.13,5.93,0,10.8-3.75,10.8-11.08S94,32.17,88.06,32.17C82,32.17,77.25,36.66,77.25,43.24Z" transform="translate(37.91 27.13)"/><path d="M106.34,43.29a13.28,13.28,0,0,1,13.43-13.63c7.43,0,14.06,4.54,13,14.87H109a10.38,10.38,0,0,0,10.75,9.78c3.47,0,7.54-1.39,9.52-4l1.87,1.5c-2.57,3.37-7.17,5.08-11.39,5.08C112.33,56.88,106.34,51.69,106.34,43.29Zm24.12-1.06c-.05-6.53-4.33-10.17-10.69-10.17-5.46,0-10.17,3.69-10.75,10.17Z" transform="translate(37.91 27.13)"/><path d="M165,30.08V56.5h-2.62V50.89a12.36,12.36,0,0,1-10.81,6,13.21,13.21,0,0,1-13.42-13.64,13.13,13.13,0,0,1,13.42-13.53,12,12,0,0,1,10.81,6.1V30.08ZM140.78,43.29c0,6.64,4.81,11.08,10.8,11.08,14.71,0,14.71-22.09,0-22.09A10.56,10.56,0,0,0,140.78,43.29Z" transform="translate(37.91 27.13)"/><path d="M177,22.12v8h9v2.2h-9v16.1c0,3.58.75,6.09,4.86,6.09A9.84,9.84,0,0,0,186,53.4l.91,2.14a11.61,11.61,0,0,1-5,1.34c-5.61,0-7.43-3.32-7.43-8.5V32.28h-5.62v-2.2h5.62v-7.7Z" transform="translate(37.91 27.13)"/><path d="M217.63,19.12h3.1v.05L208,37.3l13.75,19.15v0h-3.43L206.24,39.39,194.15,56.5h-3.42v0L204.47,37.3,191.74,19.17v-.05h3.16l11.34,16Z" transform="translate(37.91 27.13)"/></g></g></svg>